<?xml version="1.0" encoding="utf-8"?>
<!-- Generator: Adobe Illustrator 17.1.0, SVG Export Plug-In . SVG Version: 6.00 Build 0)  -->
<!DOCTYPE svg PUBLIC "-//W3C//DTD SVG 1.1//EN" "http://www.w3.org/Graphics/SVG/1.1/DTD/svg11.dtd">
<svg version="1.1" id="Layer_1" xmlns="http://www.w3.org/2000/svg" xmlns:xlink="http://www.w3.org/1999/xlink" x="0px" y="0px"
	 width="140px" height="90px" viewBox="0 0 140 90" enable-background="new 0 0 140 90" xml:space="preserve">
<g>
	<path fill="#FFFFFF" stroke="#FFFFFF" stroke-width="0.1232" d="M59.115,15.203l1.254,5.43c0.27,1.278,0.541,2.581,0.762,3.883
		h0.049c0.247-1.302,0.613-2.63,0.984-3.86l1.549-5.454h2.457l1.499,5.308c0.394,1.4,0.689,2.704,0.959,4.006h0.049
		c0.196-1.302,0.442-2.605,0.785-4.006l1.328-5.308h2.975l-3.76,11.967h-2.803l-1.426-4.865c-0.367-1.253-0.638-2.385-0.908-3.833
		h-0.048c-0.246,1.475-0.542,2.654-0.91,3.833l-1.525,4.865H59.56l-3.54-11.967H59.115z"/>
	<path fill="#FFFFFF" stroke="#FFFFFF" stroke-width="0.1232" d="M77.601,19.92c0.12-1.228,0.907-2.924,2.774-2.924
		c2.014,0,2.507,1.819,2.483,2.924H77.601z M85.61,22.035c0.051-0.271,0.099-0.714,0.099-1.279c0-2.631-1.254-5.825-5.163-5.825
		c-3.834,0-5.848,3.121-5.848,6.439c0,3.661,2.284,6.069,6.167,6.069c1.718,0,3.148-0.344,4.178-0.761l-0.442-2.09
		c-0.909,0.345-1.916,0.542-3.319,0.542c-1.915,0-3.612-0.935-3.683-3.096H85.61z"/>
	<path fill="#FFFFFF" stroke="#FFFFFF" stroke-width="0.1232" d="M87.992,24.394c0.691,0.418,1.992,0.859,3.073,0.859
		c1.328,0,1.917-0.539,1.917-1.328c0-0.81-0.492-1.228-1.963-1.743c-2.336-0.811-3.319-2.089-3.295-3.49
		c0-2.115,1.745-3.76,4.525-3.76c1.323,0,2.479,0.344,3.17,0.712l-0.593,2.138c-0.516-0.295-1.472-0.689-2.531-0.689
		c-1.081,0-1.672,0.517-1.672,1.253c0,0.763,0.568,1.131,2.09,1.673c2.164,0.786,3.195,1.892,3.195,3.66
		c0,2.163-1.695,3.761-4.866,3.761c-1.448,0-2.752-0.368-3.639-0.86L87.992,24.394z"/>
	<path fill="#FFFFFF" stroke="#FFFFFF" stroke-width="0.1232" d="M101.855,12.13v3.073h2.874v2.261h-2.874v5.283
		c0,1.45,0.392,2.213,1.548,2.213c0.565,0,0.836-0.05,1.183-0.148l0.046,2.31c-0.442,0.173-1.229,0.319-2.187,0.319
		c-1.104,0-2.04-0.392-2.604-1.007c-0.641-0.69-0.936-1.771-0.936-3.344v-5.626h-1.718v-2.261h1.718V12.99L101.855,12.13z"/>
	<path fill="#FFFFFF" stroke="#FFFFFF" stroke-width="0.1232" d="M56.662,40.944c0.689,0.419,1.988,0.859,3.07,0.859
		c1.327,0,1.917-0.54,1.917-1.326c0-0.811-0.49-1.23-1.965-1.746c-2.333-0.811-3.318-2.088-3.295-3.49
		c0-2.114,1.747-3.76,4.524-3.76c1.327,0,2.48,0.344,3.17,0.711l-0.589,2.139c-0.519-0.294-1.474-0.688-2.533-0.688
		c-1.082,0-1.672,0.517-1.672,1.253c0,0.764,0.567,1.13,2.091,1.672c2.162,0.787,3.195,1.894,3.195,3.663
		c0,2.161-1.696,3.758-4.867,3.758c-1.449,0-2.751-0.368-3.637-0.858L56.662,40.944z"/>
	<path fill="#FFFFFF" stroke="#FFFFFF" stroke-width="0.1232" d="M77.773,40.133c0,1.424,0.048,2.603,0.098,3.59h-2.655l-0.149-1.82
		h-0.047c-0.517,0.86-1.698,2.088-3.836,2.088c-2.186,0-4.177-1.303-4.177-5.208v-7.032h3.022v6.514
		c0,1.992,0.639,3.269,2.236,3.269c1.205,0,1.992-0.861,2.309-1.622c0.098-0.27,0.175-0.59,0.175-0.935v-7.226h3.022V40.133z"/>
	<path fill="#FFFFFF" stroke="#FFFFFF" stroke-width="0.1232" d="M80.892,40.944c0.689,0.419,1.991,0.859,3.074,0.859
		c1.328,0,1.917-0.54,1.917-1.326c0-0.811-0.492-1.23-1.965-1.746c-2.337-0.811-3.321-2.088-3.295-3.49
		c0-2.114,1.746-3.76,4.522-3.76c1.327,0,2.482,0.344,3.171,0.711l-0.591,2.139c-0.515-0.294-1.475-0.688-2.529-0.688
		c-1.082,0-1.672,0.517-1.672,1.253c0,0.764,0.563,1.13,2.09,1.672c2.162,0.787,3.193,1.894,3.193,3.663
		c0,2.161-1.693,3.758-4.864,3.758c-1.449,0-2.752-0.368-3.639-0.858L80.892,40.944z"/>
	<path fill="#FFFFFF" stroke="#FFFFFF" stroke-width="0.1232" d="M91.142,40.944c0.688,0.419,1.992,0.859,3.073,0.859
		c1.326,0,1.916-0.54,1.916-1.326c0-0.811-0.492-1.23-1.966-1.746c-2.335-0.811-3.321-2.088-3.293-3.49
		c0-2.114,1.745-3.76,4.522-3.76c1.326,0,2.482,0.344,3.17,0.711l-0.59,2.139c-0.514-0.294-1.475-0.688-2.528-0.688
		c-1.082,0-1.671,0.517-1.671,1.253c0,0.764,0.562,1.13,2.088,1.672c2.163,0.787,3.194,1.894,3.194,3.663
		c0,2.161-1.695,3.758-4.867,3.758c-1.448,0-2.75-0.368-3.635-0.858L91.142,40.944z"/>
	<path fill="#FFFFFF" stroke="#FFFFFF" stroke-width="0.1232" d="M103.677,36.471c0.121-1.229,0.908-2.923,2.775-2.923
		c2.016,0,2.507,1.816,2.483,2.923H103.677z M111.689,38.583c0.048-0.269,0.097-0.711,0.097-1.277c0-2.631-1.255-5.824-5.16-5.824
		c-3.835,0-5.852,3.121-5.852,6.438c0,3.661,2.287,6.07,6.17,6.07c1.72,0,3.146-0.343,4.177-0.76l-0.443-2.09
		c-0.907,0.345-1.918,0.54-3.316,0.54c-1.918,0-3.615-0.935-3.686-3.098H111.689z"/>
	<path fill="#FFFFFF" stroke="#FFFFFF" stroke-width="0.1232" d="M116.035,31.752l1.426,2.263c0.392,0.638,0.737,1.228,1.08,1.843
		h0.075c0.344-0.665,0.663-1.278,1.033-1.892l1.327-2.214h3.295l-4.007,5.727l4.078,6.245h-3.416l-1.475-2.387
		c-0.367-0.637-0.737-1.276-1.082-1.939h-0.047c-0.343,0.687-0.688,1.277-1.081,1.939l-1.378,2.387h-3.342l4.153-6.095l-4.006-5.876
		H116.035z"/>
	<path fill="#FFFFFF" stroke="#FFFFFF" stroke-width="0.1232" d="M65.607,59.764c-0.64,0.295-1.893,0.641-3.391,0.641
		c-3.738,0-6.17-2.409-6.17-6.12c0-3.589,2.458-6.391,6.66-6.391c1.105,0,2.238,0.248,2.924,0.567l-0.54,2.261
		c-0.49-0.221-1.205-0.468-2.286-0.468c-2.311,0-3.661,1.698-3.661,3.882c0,2.461,1.598,3.861,3.661,3.861
		c1.058,0,1.796-0.222,2.385-0.467L65.607,59.764z"/>
	<path fill="#FFFFFF" stroke="#FFFFFF" stroke-width="0.1232" d="M72.905,58.216c-1.819,0-2.948-1.744-2.948-4.052
		c0-1.994,0.859-4.055,2.995-4.055c2.065,0,2.901,2.138,2.901,4.004c0,2.409-1.203,4.104-2.925,4.104H72.905z M72.882,60.405
		c3.022,0,6.119-1.967,6.119-6.365c0-3.639-2.384-6.146-5.946-6.146c-3.615,0-6.196,2.409-6.196,6.341
		c0,3.836,2.605,6.171,5.998,6.171H72.882z"/>
	<path fill="#FFFFFF" stroke="#FFFFFF" stroke-width="0.1232" d="M92.2,56.545c0,1.424,0.048,2.606,0.096,3.589h-2.654l-0.148-1.819
		h-0.051c-0.512,0.86-1.693,2.09-3.833,2.09c-2.185,0-4.177-1.303-4.177-5.21v-7.03h3.025v6.512c0,1.992,0.637,3.268,2.234,3.268
		c1.206,0,1.994-0.859,2.311-1.622c0.097-0.269,0.173-0.587,0.173-0.934v-7.224H92.2V56.545z"/>
	<path fill="#FFFFFF" stroke="#FFFFFF" stroke-width="0.1232" d="M95.469,51.727c0-1.373-0.027-2.53-0.099-3.561h2.651l0.148,1.793
		h0.075c0.515-0.932,1.819-2.065,3.808-2.065c2.091,0,4.253,1.354,4.253,5.139v7.102h-3.026v-6.757c0-1.723-0.637-3.023-2.283-3.023
		c-1.208,0-2.041,0.859-2.36,1.768c-0.074,0.27-0.123,0.641-0.123,0.984v7.029h-3.044V51.727z"/>
	<path fill="#FFFFFF" stroke="#FFFFFF" stroke-width="0.1232" d="M112.864,45.093v3.073h2.875v2.26h-2.875v5.284
		c0,1.449,0.391,2.212,1.549,2.212c0.565,0,0.835-0.049,1.177-0.149l0.051,2.312c-0.445,0.171-1.229,0.319-2.187,0.319
		c-1.107,0-2.04-0.395-2.606-1.01c-0.638-0.686-0.934-1.768-0.934-3.341v-5.628h-1.723v-2.26h1.723v-2.214L112.864,45.093z"/>
	<path fill="#FFFFFF" stroke="#FFFFFF" stroke-width="0.1232" d="M120.085,48.166l2.164,6.416c0.245,0.733,0.489,1.643,0.664,2.332
		h0.07c0.199-0.689,0.418-1.572,0.639-2.36l1.867-6.388h3.245l-2.998,8.158c-1.644,4.474-2.753,6.466-4.178,7.695
		c-1.181,1.056-2.405,1.45-3.17,1.546l-0.689-2.556c0.517-0.123,1.155-0.416,1.77-0.834c0.567-0.372,1.231-1.082,1.647-1.893
		c0.125-0.222,0.196-0.392,0.196-0.542c0-0.122-0.048-0.293-0.172-0.588l-4.372-10.986H120.085z"/>
	<path fill="#FFFFFF" stroke="#FFFFFF" stroke-width="0.1232" d="M65.712,78.084c-0.641,0.295-1.895,0.639-3.393,0.639
		c-3.736,0-6.169-2.408-6.169-6.12c0-3.589,2.459-6.389,6.66-6.389c1.106,0,2.238,0.246,2.925,0.564l-0.541,2.263
		c-0.49-0.221-1.203-0.469-2.286-0.469c-2.309,0-3.661,1.697-3.661,3.886c0,2.456,1.596,3.858,3.661,3.858
		c1.057,0,1.796-0.222,2.386-0.47L65.712,78.084z"/>
	<path fill="#FFFFFF" stroke="#FFFFFF" stroke-width="0.1232" d="M73.007,76.535c-1.819,0-2.947-1.743-2.947-4.053
		c0-1.994,0.858-4.055,2.999-4.055c2.065,0,2.9,2.137,2.9,4.004c0,2.409-1.206,4.105-2.927,4.105H73.007z M72.983,78.724
		c3.023,0,6.12-1.967,6.12-6.366c0-3.637-2.382-6.143-5.948-6.143c-3.613,0-6.192,2.409-6.192,6.339c0,3.836,2.605,6.17,5.997,6.17
		H72.983z"/>
	<path fill="#FFFFFF" stroke="#FFFFFF" stroke-width="0.1232" d="M92.302,74.866c0,1.425,0.049,2.604,0.097,3.588h-2.655
		l-0.146-1.819H89.55c-0.518,0.859-1.698,2.089-3.835,2.089c-2.188,0-4.178-1.302-4.178-5.211v-7.03h3.022v6.515
		c0,1.992,0.638,3.268,2.235,3.268c1.206,0,1.99-0.86,2.313-1.622c0.096-0.27,0.17-0.591,0.17-0.935v-7.226h3.025V74.866z"/>
	<path fill="#FFFFFF" stroke="#FFFFFF" stroke-width="0.1232" d="M95.57,70.049c0-1.377-0.023-2.534-0.097-3.566h2.656l0.143,1.795
		h0.075c0.514-0.934,1.819-2.064,3.808-2.064c2.09,0,4.251,1.352,4.251,5.137v7.102h-3.02v-6.759c0-1.719-0.641-3.023-2.287-3.023
		c-1.204,0-2.04,0.858-2.358,1.77c-0.075,0.271-0.126,0.639-0.126,0.983v7.03H95.57V70.049z"/>
	<path fill="#FFFFFF" stroke="#FFFFFF" stroke-width="0.1232" d="M118.424,78.084c-0.636,0.295-1.89,0.639-3.391,0.639
		c-3.733,0-6.166-2.408-6.166-6.12c0-3.589,2.456-6.389,6.656-6.389c1.11,0,2.238,0.246,2.93,0.564l-0.543,2.263
		c-0.492-0.221-1.207-0.469-2.285-0.469c-2.312,0-3.661,1.697-3.661,3.886c0,2.456,1.595,3.858,3.661,3.858
		c1.055,0,1.793-0.222,2.381-0.47L118.424,78.084z"/>
	<path fill="#FFFFFF" stroke="#FFFFFF" stroke-width="0.1232" d="M120.662,78.454v-11.97h3.05v11.97H120.662z"/>
	<path fill="#FFFFFF" stroke="#FFFFFF" stroke-width="0.1232" d="M126.951,61.003H130v17.45h-3.049V61.003z"/>
	<g>
		<path fill="#FFFFFF" d="M31.24,27.706c-1.162,0.004-2.573,0.101-4.013,0.238c-2.03,0.193-4.108,0.467-5.645,0.687
			c-0.783,0.112-1.416,0.209-1.832,0.274c-0.046,0.007-0.097,0.015-0.138,0.022h1.97h3.406h1.566h9.168h7.879
			c-1.091-0.065-5.033-0.646-8.502-0.983C33.642,27.802,32.271,27.703,31.24,27.706z"/>
		<path fill="#FFFFFF" d="M32.559,6.86c-0.189-0.221-0.372-0.347-0.556-0.475c-0.387-0.275-0.821-0.312-1.195-0.312
			c-0.395,0-0.97,0.048-1.408,0.464c-0.183,0.174-0.411,0.41-0.548,0.695c-0.104,0.216-0.21,0.474-0.233,0.772
			c-0.187,0.038-0.359,0.098-0.521,0.184c-0.275,0.149-0.537,0.404-0.779,0.759c-0.187,0.272-0.387,0.793-0.387,1.296
			c0,0.47,0.149,0.92,0.288,1.186c0.023,0.044,0.055,0.072,0.08,0.113c-0.105-0.004-0.213-0.015-0.308-0.002
			c-0.408,0.048-0.76,0.239-1.01,0.542c-0.017,0.02-0.026,0.041-0.042,0.061c-0.093-0.219-0.359-0.801-0.718-1.16
			c-0.229-0.23-0.542-0.545-0.93-0.739c-0.127-0.063-0.29-0.156-0.402-0.221c-0.207-0.213-0.56-0.483-1.022-0.483l-0.272,0.032
			c-0.497,0.119-0.79,0.524-0.935,0.795c-0.115,0.139-0.316,0.396-0.49,0.68c-0.162,0.268-0.288,0.617-0.387,1.08
			c-0.055,0.272-0.055,0.587-0.021,0.902c-0.193-0.062-0.397-0.104-0.622-0.103c-0.345,0.025-0.608,0.173-0.773,0.287
			c0.038-0.247,0.049-0.504,0.006-0.789c-0.069-0.475-0.311-0.98-0.645-1.346c-0.411-0.457-1.065-0.699-1.704-0.661
			c-0.079-0.164-0.178-0.317-0.337-0.513c-0.465-0.587-1.036-0.655-1.425-0.655c-0.595,0-1.344,0.299-1.673,0.963
			c-0.282,0.561-0.166,1.161-0.102,1.408l4.454,13.313c-0.246,0.216-0.466,0.453-0.63,0.721c-0.195,0.32-0.396,0.722-0.411,1.274
			c-0.011,0.387,0.038,0.713,0.117,1.014h-6.977L10,44.124c0,17.613,7.84,32.393,20.973,39.535l0.491,0.267l0.481-0.286
			c14.004-8.336,20.205-20.146,20.732-39.514l0.037-16.183h-7.278c0.017-0.074,0.039-0.154,0.052-0.222
			c0.102-0.524,0.093-1.185-0.022-1.722c-0.143-0.683-0.507-1.217-1.124-1.644l4.421-13.112c0.043-0.171,0.16-0.772-0.121-1.331
			c-0.331-0.668-1.08-0.966-1.674-0.966c-0.388,0-0.958,0.068-1.421,0.648c-0.158,0.196-0.259,0.346-0.343,0.522
			c-0.368,0.003-0.882,0.037-1.412,0.413c-0.419,0.296-0.799,0.905-0.905,1.454c-0.101,0.549-0.059,1.058,0.125,1.476
			c-0.133-0.101-0.291-0.569-1.262-0.536c-0.171,0-0.346,0.039-0.522,0.098c0.032-0.314,0.031-0.627-0.025-0.903
			c-0.096-0.455-0.223-0.807-0.386-1.073c-0.171-0.282-0.373-0.537-0.49-0.678c-0.144-0.273-0.434-0.676-0.919-0.791l-0.288-0.037
			c-0.463,0-0.816,0.271-1.022,0.484c-0.111,0.065-0.274,0.158-0.4,0.22c-0.383,0.189-0.695,0.502-0.932,0.738
			c-0.358,0.359-0.625,0.941-0.717,1.157c-0.012-0.015-0.026-0.039-0.037-0.052c-0.26-0.31-0.611-0.5-1.009-0.547
			c-0.335-0.041-0.693,0.005-0.996,0.133c-0.056,0.025-0.098,0.057-0.149,0.084c0.052-0.06,0.107-0.111,0.156-0.184
			c0.302-0.451,0.448-0.921,0.448-1.441c0-0.518-0.153-1.007-0.43-1.378c-0.24-0.322-0.618-0.587-1.005-0.71
			C32.887,7.154,32.559,6.86,32.559,6.86z M36.777,12.552c0.023-0.055,0.052-0.117,0.081-0.179c0.13-0.276,0.311-0.595,0.492-0.775
			c0.212-0.216,0.463-0.459,0.724-0.591c0.192-0.096,0.462-0.254,0.554-0.309c0.015-0.018,0.039-0.043,0.063-0.068
			c0.102-0.106,0.274-0.249,0.467-0.249l0.092,0.011c0.25,0.062,0.411,0.361,0.465,0.474c0.07,0.082,0.296,0.353,0.479,0.649
			c0.116,0.188,0.213,0.468,0.29,0.834c0.049,0.235,0.049,0.536,0,0.824c-0.022,0.133-0.065,0.272-0.114,0.413
			c-0.027,0.08-0.055,0.161-0.086,0.244c-0.002,0.006-0.004,0.012-0.006,0.018c-0.039,0.106-0.079,0.213-0.114,0.32
			c-0.042,0.124-0.077,0.366-0.105,0.614c-0.013,0.122-0.024,0.241-0.034,0.353c-0.001,0.009-0.002,0.019-0.002,0.027
			c-0.01,0.127-0.018,0.24-0.022,0.314l-0.004,0.076l0.029,0.033c0.002,0.003,0.138,0.284,0.138,0.544
			c0,0.064-0.001,0.114-0.003,0.162c-0.006,0.189-0.027,0.277-0.091,0.417c-0.115,0.253-0.22,0.408-0.401,0.567
			c-0.166,0.145-0.297,0.26-0.523,0.353l-0.106,0.044c-0.21,0.088-0.352,0.15-0.458,0.176c-0.222,0.054-0.366,0.082-0.37,0.083
			l-0.224,0.042l-0.018,0.82l-0.002,0.07v0l-0.006,0.279l-1.051-0.178l0.085-0.278l0.008-0.025l0.005-0.017l0.258-0.841
			l-0.162-0.118c0,0-0.283-0.206-0.605-0.403c-0.226-0.139-0.301-0.254-0.416-0.43l-0.046-0.07
			c-0.126-0.186-0.169-0.273-0.233-0.529c-0.044-0.177-0.051-0.431-0.038-0.616c0.006-0.087,0.015-0.163,0.029-0.201
			c0.066-0.179,0.101-0.264,0.215-0.396c0.025-0.03,0.072-0.067,0.127-0.107l0.039-0.101c0.03-0.077,0.077-0.2,0.126-0.334
			c0.009-0.023,0.017-0.046,0.026-0.07c0.041-0.11,0.078-0.216,0.116-0.324c0.001-0.002,0.001-0.004,0.002-0.006
			c0.055-0.16,0.103-0.306,0.118-0.38c0.023-0.119,0.039-0.256,0.055-0.395c0.008-0.07,0.019-0.137,0.028-0.207
			c0.006-0.042,0.011-0.084,0.017-0.125c0.004-0.026,0.006-0.053,0.011-0.078C36.702,12.782,36.732,12.657,36.777,12.552z
			 M21.573,12.351c0.051-0.248,0.143-0.593,0.291-0.835c0.18-0.296,0.408-0.567,0.478-0.649c0.053-0.114,0.214-0.411,0.465-0.474
			l0.092-0.011c0.203,0,0.379,0.154,0.481,0.264c0.017,0.018,0.036,0.038,0.049,0.053c0.092,0.054,0.362,0.213,0.552,0.308
			c0.273,0.136,0.529,0.394,0.718,0.584c0.023,0.031,0.058,0.065,0.08,0.095c0.213,0.254,0.411,0.65,0.5,0.866
			c0.045,0.108,0.076,0.237,0.1,0.374c0.009,0.052,0.015,0.108,0.022,0.162c0.011,0.08,0.024,0.159,0.033,0.24
			c0.01,0.083,0.022,0.158,0.033,0.236c0.007,0.051,0.013,0.108,0.022,0.154c0.003,0.014,0.013,0.044,0.018,0.063
			c0.021,0.082,0.057,0.196,0.104,0.331c0.037,0.108,0.075,0.213,0.115,0.323c0.008,0.021,0.015,0.042,0.023,0.062
			c0.05,0.134,0.097,0.258,0.127,0.335l0.039,0.101c0.056,0.04,0.103,0.078,0.129,0.108c0.114,0.133,0.148,0.218,0.215,0.396
			c0.012,0.032,0.021,0.089,0.027,0.158c0.017,0.186,0.011,0.468-0.036,0.658c-0.063,0.254-0.107,0.341-0.234,0.532l-0.041,0.062
			c-0.115,0.177-0.192,0.295-0.419,0.435c-0.322,0.198-0.605,0.403-0.605,0.403l-0.163,0.118l0.249,0.808l0.023,0.075l0,0.001
			l0.085,0.277l-1.051,0.178l-0.006-0.279l-0.001-0.049l0-0.021l-0.018-0.82l-0.223-0.042c-0.004-0.001-0.147-0.028-0.368-0.083
			c-0.107-0.026-0.249-0.088-0.458-0.176l-0.109-0.046c-0.222-0.092-0.352-0.205-0.558-0.385c-0.141-0.123-0.247-0.279-0.365-0.535
			c-0.06-0.131-0.083-0.213-0.09-0.384c-0.002-0.054-0.003-0.117-0.003-0.194c0-0.211,0.089-0.437,0.124-0.516l0.042-0.049
			l-0.005-0.087c-0.004-0.074-0.012-0.186-0.022-0.312c-0.002-0.031-0.006-0.067-0.009-0.099c-0.008-0.095-0.017-0.188-0.028-0.288
			c-0.027-0.245-0.061-0.485-0.102-0.608c-0.036-0.108-0.076-0.217-0.116-0.323l-0.001-0.002c-0.03-0.08-0.056-0.157-0.083-0.234
			c-0.052-0.15-0.099-0.297-0.123-0.438C21.524,12.888,21.525,12.588,21.573,12.351z M32.348,8.753
			c0.166-0.015,0.333-0.012,0.44,0.015c0.262,0.063,0.545,0.25,0.716,0.474c0.187,0.252,0.29,0.593,0.29,0.961
			c0,0.378-0.108,0.722-0.329,1.05c-0.263,0.395-0.613,0.497-0.89,0.543c-0.141,0.024-0.321,0.037-0.474,0.043l0.151,1.126
			l0.693,5.159l0.075,0.555l0.029,0.218c0.087,0.004,0.18,0.01,0.286,0.019c0.126,0.01,0.256,0.021,0.404,0.037
			c0.306,0.032,0.654,0.074,1.016,0.123c-0.026-0.027-0.058-0.043-0.079-0.08c-0.011-0.018-0.012-0.036-0.021-0.055
			c-0.077-0.159-0.1-0.323-0.082-0.411c0.021-0.098,0.146-0.213,0.146-0.213s-0.044,0.003-0.102,0.006
			c-0.089,0.005-0.22,0.008-0.335-0.005c-0.115-0.014-0.233-0.056-0.339-0.114c-0.045-0.024-0.094-0.044-0.131-0.078
			c-0.11-0.103-0.169-0.181-0.225-0.317c-0.007-0.017-0.015-0.026-0.022-0.045c-0.001-0.003-0.001-0.004-0.002-0.007
			c-0.056-0.161-0.05-0.238-0.031-0.36c0.001-0.006,0-0.011,0.002-0.018c0.02-0.136,0.114-0.226,0.197-0.304
			c0.082-0.078,0.206-0.097,0.266-0.117c0.022-0.007-0.011-0.033-0.056-0.062c-0.079-0.051-0.204-0.114-0.204-0.114
			s-0.175-0.063-0.309-0.157c-0.033-0.023-0.066-0.047-0.09-0.074c-0.071-0.079-0.143-0.194-0.206-0.316
			c-0.046-0.089-0.089-0.182-0.113-0.27c-0.064-0.236-0.095-0.442-0.033-0.595c0.06-0.15,0.141-0.227,0.24-0.249
			c0.003-0.001,0.005-0.004,0.008-0.005c0.104-0.02,0.268,0.019,0.35,0.058c0.082,0.039,0.207,0.116,0.207,0.116
			s-0.048-0.05-0.109-0.114c-0.126-0.133-0.328-0.356-0.428-0.514c-0.017-0.027-0.021-0.045-0.034-0.069
			c-0.033-0.057-0.063-0.113-0.082-0.165c-0.001-0.004-0.005-0.008-0.006-0.012c-0.002-0.005-0.006-0.01-0.008-0.015
			c-0.028-0.082-0.047-0.168-0.073-0.284c-0.025-0.114-0.023-0.229-0.005-0.34c0.013-0.075,0.028-0.15,0.066-0.215
			c0.119-0.205,0.246-0.31,0.37-0.35c0.139-0.042,0.265-0.024,0.371,0.04c0.086,0.053,0.206,0.214,0.206,0.214s-0.103-0.272,0-0.467
			c0.103-0.194,0.182-0.274,0.376-0.356c0.14-0.06,0.317-0.081,0.484-0.06c0.162,0.019,0.276,0.088,0.372,0.199
			c0.001,0.001,0.002,0.002,0.003,0.003c0.084,0.1,0.138,0.198,0.16,0.333c0.019,0.135-0.009,0.267-0.033,0.344
			c-0.016,0.052-0.034,0.097-0.049,0.135c-0.019,0.048-0.034,0.083-0.034,0.083s0.177-0.039,0.333-0.04
			c0.021,0,0.043-0.001,0.063,0.001c0.005,0,0.012,0,0.017,0c0.122,0.014,0.215,0.043,0.313,0.171
			c0.004,0.005,0.009,0.006,0.013,0.012c0.096,0.129,0.032,0.433-0.084,0.515c-0.029,0.021-0.038,0.035-0.056,0.052
			c-0.038,0.025-0.076,0.053-0.114,0.081c-0.09,0.065-0.177,0.133-0.236,0.202c-0.171,0.199-0.233,0.346-0.314,0.565
			c-0.006,0.017-0.008,0.044-0.014,0.063c-0.079,0.283-0.068,0.792,0.004,1.085c0.083,0.33,0.154,0.473,0.311,0.706l0.042,0.064
			c0.127,0.195,0.259,0.396,0.592,0.601c0.155,0.095,0.3,0.193,0.406,0.265l-0.165,0.536l-0.226,0.736l-0.031,0.101l-0.004,0.012
			l2.322,0.394l0-0.004l0.001-0.047l0.017-0.775l0.012-0.545c0.052-0.012,0.111-0.026,0.177-0.042
			c0.126-0.031,0.295-0.1,0.542-0.204l0.104-0.043c0.311-0.128,0.497-0.291,0.715-0.482c0.206-0.181,0.357-0.398,0.505-0.723
			c0.123-0.268,0.145-0.446,0.145-0.812c0-0.06-0.01-0.117-0.018-0.175c-0.04-0.317-0.168-0.594-0.217-0.676l-0.011-0.013
			l-0.004-0.004c-0.005-0.007-0.005-0.012-0.01-0.02c-0.004-0.006-0.006-0.015-0.01-0.022c-0.095-0.162-0.111-0.433-0.037-0.503
			c0.087-0.081,0.185-0.131,0.343-0.102c0.021,0.004,0.033,0.014,0.052,0.02c0.038,0.012,0.072,0.025,0.102,0.04
			c0.074,0.038,0.13,0.074,0.13,0.074s0.041-0.272,0.083-0.367c0.041-0.098,0.154-0.215,0.265-0.282
			c0.119-0.07,0.269-0.13,0.42-0.12c0.143,0.008,0.261,0.093,0.364,0.171c0.082,0.063,0.134,0.142,0.18,0.238
			c0.011,0.022,0.023,0.04,0.034,0.065c0.054,0.131,0.097,0.354,0.075,0.529c-0.016,0.13-0.066,0.218-0.096,0.265
			c-0.01,0.016-0.027,0.046-0.027,0.046s0.048,0.038,0.208,0.05c0.162,0.009,0.243-0.03,0.376,0.009
			c0.131,0.039,0.207,0.16,0.271,0.293c0.01,0.02,0.023,0.036,0.031,0.056c0.027,0.061,0.026,0.136,0.026,0.208
			c0,0.123-0.02,0.246-0.067,0.335c-0.052,0.098-0.117,0.178-0.187,0.251c-0.065,0.068-0.135,0.13-0.204,0.195
			c-0.146,0.137-0.701,0.408-0.701,0.408l-0.002,0.001l-0.122,0.038c0,0,0.433,0.078,0.556,0.155
			c0.032,0.02,0.061,0.052,0.092,0.079c0.075,0.066,0.137,0.139,0.174,0.216c0.006,0.012,0.019,0.024,0.023,0.036
			c0.046,0.129,0.068,0.205-0.018,0.447c-0.065,0.183-0.229,0.29-0.393,0.349c-0.095,0.033-0.177,0.041-0.259,0.045
			c-0.062,0.003-0.124,0.004-0.196,0.012c-0.11,0.013-0.26,0.008-0.352,0.004c-0.045-0.002-0.08-0.004-0.08-0.004
			s0.136,0.067,0.206,0.168c0.006,0.009,0.015,0.017,0.02,0.026c0.062,0.116,0.101,0.271,0.02,0.407
			c-0.082,0.136-0.164,0.213-0.35,0.271c-0.186,0.059-0.433,0.09-0.661,0.077c-0.023-0.001-0.05-0.006-0.074-0.008
			c-0.346-0.029-0.812-0.128-0.812-0.128s0.063,0.117,0.063,0.272c0,0.155-0.02,0.213-0.166,0.31
			c-0.109,0.075-0.148,0.081-0.259,0.089c0.621,0.126,1.247,0.251,1.749,0.35c0.027,0.005,0.055,0.011,0.081,0.016
			c0.331,0.066,0.601,0.119,0.764,0.151l0.311-0.716l0.051-0.118l1.739-4.004l0.642-1.478c-0.177-0.019-0.327-0.058-0.448-0.118
			c-0.322-0.162-0.527-0.392-0.708-0.797c-0.127-0.284-0.153-0.652-0.075-1.064c0.077-0.406,0.381-0.839,0.619-1.008
			c0.357-0.252,0.718-0.285,0.993-0.285c0.142,0,0.319,0.047,0.468,0.096c0.017-0.055,0.037-0.117,0.059-0.184
			c0.101-0.301,0.163-0.429,0.376-0.695c0.253-0.321,0.532-0.387,0.873-0.387c0.365,0,0.849,0.181,1.047,0.577
			c0.181,0.363,0.081,0.799,0.069,0.847l-3.464,10.284l-0.845,2.509l-0.034,0.1l-0.022,0.065l-0.289,0.858l-0.006,0.012
			l-0.021,0.042c0.222,0.113,0.401,0.23,0.542,0.348c0.207,0.173,0.341,0.349,0.427,0.524c0.064,0.13,0.106,0.26,0.133,0.388
			c0.006,0.03,0.005,0.07,0.011,0.102c0.066,0.376,0.084,0.844,0.007,1.233c-0.021,0.107-0.046,0.221-0.079,0.338
			c-0.096,0.347-0.257,0.715-0.571,0.977c-0.005,0.004-0.036,0.003-0.05,0.006h1.195h6.677l-0.035,15.198
			c-0.559,20.532-7.67,31.183-20.252,38.672c-12.997-7.068-20.46-21.589-20.46-38.672l0.036-15.198h6.501h1.546
			c-0.017-0.008-0.037-0.02-0.056-0.03c-0.278-0.15-0.782-0.473-0.966-0.94c-0.001-0.003-0.001-0.007-0.002-0.01
			c0-0.001,0-0.002-0.001-0.002c-0.047-0.121-0.072-0.253-0.091-0.384c-0.027-0.184-0.04-0.368-0.035-0.534
			c0.006-0.192,0.054-0.35,0.115-0.491c0.048-0.111,0.102-0.213,0.155-0.298c0.059-0.097,0.133-0.194,0.217-0.288
			c0.091-0.102,0.194-0.201,0.31-0.293l0.062-0.136l0.09-0.198l-0.122-0.247l-0.192-0.575l-0.063-0.188l-0.008-0.024l-0.849-2.538
			l-3.441-10.281c-0.018-0.07-0.119-0.508,0.062-0.87c0.197-0.396,0.681-0.577,1.047-0.577c0.34,0,0.617,0.066,0.873,0.388
			c0.203,0.252,0.27,0.376,0.376,0.693c0.024,0.07,0.044,0.134,0.062,0.192c0.143-0.045,0.311-0.091,0.442-0.102
			c0.462-0.05,0.914,0.115,1.191,0.424c0.188,0.207,0.413,0.572,0.473,0.977c0.067,0.458-0.009,0.732-0.083,0.918
			c-0.115,0.285-0.366,0.65-0.729,0.831c-0.121,0.061-0.271,0.1-0.448,0.119l0.399,0.92l1.91,4.398l0.086,0.197l0.228,0.525
			c0.085-0.023,0.334-0.088,0.686-0.177c0.016-0.004,0.031-0.008,0.047-0.012c0.434-0.109,1.004-0.249,1.597-0.382
			c-0.033-0.012-0.067-0.029-0.115-0.062c-0.09-0.06-0.126-0.113-0.145-0.176c-0.012-0.038-0.022-0.075-0.022-0.134
			c0-0.155,0.063-0.272,0.063-0.272s-0.034,0.007-0.066,0.014c-0.141,0.029-0.535,0.107-0.821,0.122
			c-0.037,0.002-0.075-0.004-0.112-0.004c-0.194-0.001-0.393-0.024-0.547-0.074c-0.186-0.058-0.267-0.135-0.349-0.271
			c-0.007-0.012-0.002-0.025-0.008-0.037c-0.057-0.127-0.029-0.264,0.028-0.37c0.062-0.118,0.226-0.195,0.226-0.195
			s-0.065,0.005-0.151,0.007c-0.088,0.002-0.198,0.003-0.282-0.007c-0.055-0.006-0.102-0.007-0.151-0.009
			c-0.098-0.004-0.192-0.01-0.302-0.048c-0.163-0.059-0.327-0.166-0.394-0.349c-0.005-0.015-0.007-0.025-0.011-0.039
			c-0.067-0.208-0.049-0.287-0.007-0.408c0.035-0.096,0.128-0.199,0.227-0.278c0.021-0.017,0.04-0.039,0.061-0.053
			c0.123-0.076,0.558-0.155,0.558-0.155l-0.124-0.038c0,0-0.017-0.008-0.02-0.01c-0.056-0.027-0.544-0.268-0.682-0.398
			c-0.045-0.042-0.088-0.085-0.132-0.127c-0.097-0.093-0.19-0.19-0.259-0.32c-0.005-0.01-0.006-0.026-0.011-0.037
			c-0.048-0.106-0.064-0.242-0.047-0.373c0.006-0.045-0.001-0.093,0.016-0.132c0.069-0.155,0.153-0.305,0.303-0.349
			c0.133-0.039,0.215,0,0.375-0.009c0.162-0.012,0.209-0.05,0.209-0.05s-0.021-0.034-0.04-0.067c-0.01-0.017-0.012-0.027-0.022-0.05
			c-0.025-0.054-0.052-0.117-0.06-0.194c-0.021-0.175,0.021-0.398,0.075-0.529c0.054-0.132,0.111-0.224,0.214-0.302
			c0.102-0.078,0.221-0.163,0.363-0.171c0.151-0.01,0.301,0.05,0.421,0.12c0.1,0.061,0.195,0.16,0.243,0.251
			c0.005,0.01,0.017,0.021,0.021,0.031c0.028,0.062,0.054,0.197,0.069,0.285c0.006,0.037,0.011,0.062,0.012,0.071
			c0,0.002,0.002,0.011,0.002,0.011s0.074-0.047,0.168-0.089c0.038-0.017,0.07-0.036,0.116-0.046c0.156-0.029,0.254,0.021,0.339,0.1
			c0.001,0.001,0.002,0.001,0.003,0.002c0.078,0.072,0.06,0.366-0.046,0.525c-0.012,0.019-0.016,0.032-0.025,0.048l-0.039,0.047
			c-0.006,0.012-0.025,0.056-0.049,0.114c-0.049,0.12-0.111,0.321-0.133,0.545c-0.004,0.045-0.013,0.088-0.013,0.134
			c0,0.338,0.015,0.529,0.144,0.812c0.151,0.33,0.303,0.546,0.549,0.761c0.178,0.156,0.362,0.317,0.669,0.443l0.107,0.045
			c0.247,0.104,0.415,0.172,0.541,0.203c0.065,0.016,0.123,0.03,0.175,0.041l0.01,0.473l0.017,0.786l0.002,0.095l0,0.016
			l2.323-0.394l-0.007-0.023l-0.009-0.03l-0.231-0.749l-0.18-0.583c0.105-0.073,0.251-0.17,0.407-0.265
			c0.335-0.206,0.467-0.41,0.595-0.606l0.038-0.058c0.159-0.238,0.23-0.38,0.312-0.707c0.075-0.304,0.087-0.847-0.004-1.122
			c-0.002-0.007-0.003-0.019-0.006-0.026c-0.082-0.218-0.143-0.365-0.314-0.565c-0.077-0.09-0.199-0.181-0.316-0.259
			c-0.013-0.009-0.025-0.018-0.038-0.027c-0.018-0.017-0.026-0.03-0.054-0.05c-0.037-0.027-0.066-0.08-0.089-0.141
			c-0.048-0.124-0.06-0.288,0.006-0.375c0.09-0.123,0.175-0.154,0.28-0.171c0.016-0.003,0.029-0.01,0.047-0.012
			c0.004,0,0.009,0,0.012,0c0.165-0.016,0.398,0.038,0.398,0.038s-0.047-0.102-0.082-0.218c-0.024-0.076-0.054-0.209-0.033-0.344
			c0.02-0.134,0.076-0.232,0.161-0.333c0.095-0.113,0.211-0.183,0.375-0.201c0.165-0.02,0.344,0,0.484,0.06
			c0.176,0.076,0.256,0.158,0.348,0.32c0.008,0.015,0.017,0.02,0.026,0.037c0.052,0.098,0.051,0.216,0.038,0.308
			c-0.013,0.091-0.038,0.158-0.038,0.158s0.118-0.161,0.206-0.214c0.105-0.064,0.231-0.082,0.37-0.04
			c0.099,0.032,0.199,0.121,0.296,0.252c0.018,0.024,0.036,0.041,0.054,0.07c0.007,0.011,0.015,0.016,0.022,0.028
			c0.093,0.161,0.103,0.363,0.061,0.555c-0.053,0.232-0.075,0.343-0.204,0.544c-0.006,0.009-0.016,0.02-0.022,0.03
			c-0.087,0.128-0.223,0.285-0.338,0.41c-0.097,0.106-0.177,0.188-0.177,0.188s0.123-0.077,0.206-0.116
			c0.066-0.031,0.179-0.055,0.277-0.055c0.024,0,0.052-0.007,0.072-0.003c0.088,0.016,0.158,0.088,0.216,0.2
			c0.01,0.02,0.023,0.03,0.033,0.054c0.063,0.154,0.031,0.359-0.032,0.595c-0.057,0.211-0.196,0.451-0.32,0.587
			c-0.021,0.023-0.05,0.043-0.078,0.064c-0.134,0.1-0.319,0.167-0.319,0.167s-0.152,0.075-0.226,0.127
			c-0.033,0.023-0.054,0.043-0.035,0.049c0.061,0.02,0.185,0.039,0.267,0.117c0.039,0.037,0.08,0.077,0.115,0.123
			c0.039,0.051,0.071,0.109,0.081,0.181c0.021,0.137,0.032,0.208-0.032,0.385c-0.06,0.173-0.122,0.246-0.245,0.362
			c-0.046,0.043-0.105,0.07-0.163,0.097c-0.099,0.047-0.205,0.082-0.309,0.095c-0.127,0.015-0.275,0.009-0.361,0.004
			c-0.018-0.001-0.031-0.002-0.043-0.002c-0.015-0.001-0.031-0.002-0.031-0.002s0.011,0.012,0.013,0.014
			c0.016,0.015,0.061,0.07,0.098,0.139c0.012,0.021,0.03,0.04,0.034,0.061c0.02,0.098,0,0.291-0.103,0.466
			c-0.037,0.063-0.087,0.099-0.137,0.137c0.44-0.071,0.852-0.131,1.226-0.175c0.048-0.006,0.095-0.011,0.142-0.016
			c0.222-0.024,0.425-0.04,0.605-0.046l0.046-0.632l0.011-0.143l0.383-5.249l0.071-0.976l-0.043,0.006
			c-0.16,0.025-0.39,0.057-0.637,0.037c-0.25-0.02-0.504-0.14-0.672-0.236c-0.214-0.12-0.369-0.285-0.501-0.533
			c-0.095-0.181-0.206-0.513-0.206-0.858c0-0.373,0.161-0.748,0.262-0.897c0.125-0.181,0.318-0.419,0.536-0.537
			c0.234-0.126,0.502-0.183,0.911-0.13c-0.013-0.216-0.026-0.466-0.027-0.549c0-0.212,0.081-0.41,0.169-0.592
			c0.089-0.183,0.26-0.358,0.399-0.492c0.256-0.24,0.628-0.271,0.924-0.271c0.276,0,0.563,0.022,0.788,0.182
			c0.179,0.125,0.3,0.21,0.431,0.361c0.11,0.129,0.181,0.293,0.228,0.445C32.288,7.832,32.374,8.332,32.348,8.753z"/>
		<path fill="#FFFFFF" d="M11.966,43.872l-0.001,0.111l0.001,0c0.867,0.05,1.279,0.157,2.09-0.102
			c0.77-0.246,1.28-0.573,1.773-0.591c1.908-0.081,2.746,1.451,5.208,0.66c1.096-0.355,2.006-0.919,3.099-0.637
			c1.152,0.295,1.88,0.852,3.113,0.86c1.552,0.004,3.017-1.037,4.195-0.988c1.24,0.049,2.773,0.869,3.753,0.946
			c1.558,0.129,2.067-0.868,4.262-0.87c1.184-0.002,2.073,0.554,2.927,0.734c0.373,0.082,0.815,0.123,1.227,0.025
			c1.103-0.264,1.974-0.913,3.089-0.811c1.4,0.125,2.641,0.752,4.007,0.773l0.002-0.245l0.138-13.794l-0.107,0l-38.638,0.14
			L11.966,43.872z"/>
		<path fill="#FFFFFF" d="M18.617,54.084c-0.491-0.113-0.785-0.02-1.232-0.712c1.074,0.428,1.941,0.552,2.975,0.91
			c0.494,0.172,0.923,0.445,1.372,0.692c0.869,0.482,1.51,1.143,2.309,1.767c0.095,0.077,0.071,0.288,0.232,0.165
			c0.109-0.084,0.13-0.126,0.067-0.215c-0.521-0.739-0.951-1.199-1.527-1.837c0.698,0.098,1.697,0.261,2.316-0.178
			c-0.601-0.457-1.929-0.738-2.633-1.506c-1.693,0.14-4.104-0.65-5.111-1.694c-0.139-0.145-0.332-0.391-0.429-0.606
			c-0.14-0.309-0.198-0.669-0.089-0.991c0.092-0.278,0.477-0.425,0.674-0.408c0.1,0.009,0.323,0.146,0.193,0.221
			c-0.163,0.092-0.397,0.065-0.502,0.221c-0.235,0.354-0.193,0.833,0.136,1.154c0.293,0.291,0.604,0.572,0.975,0.805
			c0.515,0.326,1.023,0.527,1.6,0.712c0.915,0.291,2.639,0.394,3.958,0.235c-0.948-0.224-1.935-0.368-2.807-0.829
			c-0.447-0.237-0.682-0.395-0.947-0.716c0.29,0.365,0.894,0.525,1.333,0.494c-0.132-0.152-0.492-0.353-0.633-0.494
			c0.178,0.226,0.497,0.34,0.836,0.303c0.69-0.08,0.955-0.254,1.026-0.336c-0.632-0.031-1.29,0.136-1.853-0.103
			c-0.787-0.332-1.149-1.157-1.893-1.573c-0.484-0.27-0.763-0.518-1.256-0.779c-0.159-0.085-0.449-0.104-0.676-0.464
			c-0.194-0.31-0.287-0.513-0.491-0.819c-0.137-0.207-0.384-0.364-0.612-0.401c-0.411-0.064-0.848-0.167-1.252,0.039
			c-0.399,0.207-0.571,0.609-0.918,0.904l-0.842,0.141c0.768,0.443,1.426,0.79,1.778,1.633c0.228,0.542,0.468,1.009,0.571,1.525
			c0.036,0.176,0.094,0.38,0.192,0.555c0.182,0.328,0.347,0.652,0.633,0.906c0.399,0.359,1.018,0.278,1.084,0.661
			c0.05,0.298-0.447,0.482-0.751,0.751c-0.185,0.164-0.378,0.25-0.595,0.319c0.398,0.12,0.779,0.093,1.152,0.135
			c0.117,0.014,0.243,0.007,0.358-0.028c0.1,0.626,0.518,1.268,1.193,1.402C18.287,55.391,18.251,54.732,18.617,54.084z
			 M15.181,48.221c-0.226,0-0.409-0.1-0.409-0.217c0-0.117,0.183-0.214,0.409-0.214s0.409,0.096,0.409,0.214
			C15.59,48.121,15.408,48.221,15.181,48.221z"/>
		<path fill="#FFFFFF" d="M22.83,64.257c1.072,0.429,1.941,0.554,2.974,0.913c0.495,0.171,0.924,0.445,1.371,0.693
			c0.87,0.48,1.512,1.139,2.309,1.767c0.097,0.075,0.073,0.287,0.232,0.163c0.111-0.082,0.13-0.123,0.069-0.215
			c-0.522-0.738-0.951-1.197-1.529-1.837c0.698,0.101,1.698,0.262,2.316-0.175c-0.599-0.46-1.929-0.739-2.63-1.509
			c-1.694,0.142-4.104-0.651-5.11-1.692c-0.14-0.145-0.334-0.391-0.429-0.606c-0.14-0.308-0.198-0.67-0.089-0.994
			c0.092-0.275,0.476-0.424,0.674-0.405c0.1,0.006,0.323,0.144,0.193,0.217c-0.164,0.096-0.399,0.07-0.502,0.224
			c-0.238,0.353-0.195,0.832,0.135,1.154c0.293,0.289,0.603,0.571,0.973,0.806c0.519,0.324,1.025,0.525,1.601,0.71
			c0.916,0.293,2.639,0.395,3.96,0.234c-0.95-0.222-1.936-0.364-2.809-0.828c-0.445-0.234-0.68-0.395-0.947-0.716
			c0.291,0.365,0.894,0.526,1.334,0.493c-0.132-0.15-0.491-0.35-0.632-0.493c0.176,0.226,0.497,0.342,0.836,0.303
			c0.69-0.08,0.953-0.252,1.025-0.337c-0.632-0.029-1.289,0.14-1.852-0.102c-0.787-0.332-1.15-1.156-1.893-1.572
			c-0.484-0.273-0.764-0.518-1.257-0.779c-0.158-0.084-0.452-0.102-0.676-0.465c-0.193-0.309-0.286-0.511-0.49-0.819
			c-0.136-0.207-0.385-0.365-0.61-0.398c-0.412-0.068-0.849-0.171-1.253,0.039c-0.399,0.204-0.571,0.606-0.917,0.901l-0.844,0.14
			c0.77,0.443,1.427,0.794,1.78,1.634c0.227,0.543,0.466,1.009,0.571,1.526c0.034,0.172,0.094,0.379,0.19,0.554
			c0.183,0.328,0.349,0.652,0.635,0.908c0.399,0.357,1.017,0.278,1.082,0.66c0.052,0.297-0.447,0.482-0.75,0.751
			c-0.184,0.164-0.377,0.25-0.594,0.32c0.397,0.117,0.78,0.094,1.152,0.134c0.117,0.01,0.242,0.006,0.359-0.028
			c0.097,0.625,0.518,1.271,1.193,1.402c-0.243-0.656-0.28-1.315,0.087-1.962C23.568,64.859,23.275,64.95,22.83,64.257z
			 M20.625,59.104c-0.226,0-0.41-0.094-0.41-0.211c0-0.119,0.184-0.215,0.41-0.215c0.227,0,0.409,0.096,0.409,0.215
			C21.034,59.01,20.852,59.104,20.625,59.104z"/>
		<path fill="#FFFFFF" d="M36.863,75.727c-0.602-0.459-1.93-0.738-2.633-1.509c-1.694,0.141-4.104-0.65-5.111-1.693
			c-0.14-0.146-0.333-0.39-0.429-0.604c-0.14-0.311-0.198-0.672-0.089-0.994c0.093-0.275,0.477-0.424,0.674-0.406
			c0.1,0.007,0.322,0.142,0.193,0.217c-0.163,0.094-0.399,0.069-0.502,0.224c-0.238,0.351-0.194,0.832,0.134,1.153
			c0.294,0.292,0.604,0.574,0.974,0.805c0.517,0.327,1.025,0.529,1.601,0.712c0.915,0.293,2.638,0.394,3.958,0.236
			c-0.949-0.225-1.935-0.367-2.808-0.83c-0.447-0.237-0.682-0.392-0.948-0.715c0.291,0.365,0.895,0.525,1.334,0.489
			c-0.132-0.147-0.492-0.349-0.632-0.489c0.178,0.223,0.498,0.342,0.836,0.303c0.69-0.08,0.954-0.253,1.026-0.337
			c-0.632-0.029-1.291,0.139-1.853-0.1c-0.786-0.333-1.149-1.159-1.893-1.576c-0.484-0.271-0.763-0.514-1.257-0.777
			c-0.157-0.084-0.449-0.104-0.674-0.464c-0.195-0.31-0.287-0.511-0.491-0.822c-0.137-0.207-0.384-0.362-0.612-0.398
			c-0.411-0.066-0.848-0.168-1.252,0.04c-0.4,0.203-0.571,0.607-0.917,0.902l-0.843,0.14c0.768,0.444,1.426,0.792,1.779,1.635
			c0.228,0.542,0.466,1.009,0.57,1.522c0.035,0.175,0.094,0.382,0.191,0.556c0.183,0.329,0.349,0.654,0.634,0.907
			c0.399,0.359,1.018,0.277,1.084,0.662c0.051,0.298-0.446,0.482-0.752,0.751c-0.183,0.163-0.376,0.248-0.593,0.32
			c0.398,0.118,0.78,0.09,1.151,0.134c0.118,0.012,0.244,0.007,0.358-0.028c0.099,0.625,0.518,1.271,1.193,1.401
			c-0.243-0.656-0.28-1.317,0.087-1.962c-0.492-0.114-0.787-0.02-1.232-0.714c1.073,0.429,1.941,0.555,2.975,0.909
			c0.494,0.175,0.922,0.447,1.372,0.694c0.869,0.484,1.51,1.141,2.308,1.767c0.095,0.08,0.072,0.287,0.231,0.166
			c0.11-0.084,0.13-0.128,0.068-0.216c-0.521-0.739-0.951-1.198-1.528-1.836C35.244,76.004,36.242,76.163,36.863,75.727z
			 M26.914,69.266c-0.225,0-0.409-0.096-0.409-0.213c0-0.116,0.184-0.213,0.409-0.213c0.228,0,0.41,0.097,0.41,0.213
			C27.325,69.17,27.142,69.266,26.914,69.266z"/>
		<path fill="#FFFFFF" d="M43.999,65.688c-0.6-0.458-1.929-0.74-2.632-1.509c-1.693,0.141-4.104-0.651-5.111-1.696
			c-0.139-0.142-0.331-0.388-0.428-0.601c-0.14-0.311-0.197-0.673-0.089-0.995c0.093-0.278,0.478-0.423,0.675-0.406
			c0.1,0.007,0.322,0.143,0.193,0.22c-0.163,0.091-0.399,0.065-0.502,0.222c-0.237,0.354-0.194,0.832,0.134,1.153
			c0.295,0.29,0.604,0.572,0.975,0.806c0.515,0.323,1.024,0.529,1.6,0.71c0.915,0.294,2.639,0.394,3.958,0.235
			c-0.948-0.224-1.934-0.366-2.807-0.826c-0.447-0.237-0.681-0.394-0.947-0.717c0.291,0.363,0.894,0.525,1.333,0.49
			c-0.132-0.146-0.491-0.35-0.632-0.49c0.177,0.224,0.497,0.34,0.837,0.3c0.689-0.076,0.953-0.252,1.025-0.335
			c-0.633-0.032-1.29,0.138-1.853-0.1c-0.786-0.334-1.148-1.158-1.892-1.575c-0.484-0.271-0.762-0.517-1.257-0.778
			c-0.158-0.084-0.449-0.104-0.675-0.465c-0.195-0.312-0.286-0.511-0.491-0.82c-0.137-0.208-0.384-0.362-0.61-0.399
			c-0.413-0.065-0.849-0.167-1.253,0.041c-0.399,0.203-0.57,0.605-0.917,0.903l-0.842,0.139c0.767,0.442,1.426,0.789,1.779,1.634
			c0.228,0.543,0.467,1.009,0.57,1.523c0.036,0.175,0.095,0.381,0.192,0.555c0.184,0.329,0.347,0.653,0.633,0.906
			c0.399,0.361,1.018,0.277,1.084,0.663c0.051,0.298-0.447,0.484-0.75,0.755c-0.186,0.163-0.379,0.247-0.596,0.318
			c0.399,0.117,0.781,0.093,1.153,0.135c0.116,0.012,0.242,0.006,0.357-0.031c0.1,0.627,0.518,1.271,1.192,1.406
			c-0.243-0.657-0.279-1.317,0.087-1.962c-0.492-0.116-0.785-0.023-1.233-0.715c1.074,0.428,1.942,0.553,2.975,0.91
			c0.495,0.171,0.924,0.447,1.372,0.696c0.87,0.479,1.51,1.139,2.308,1.764c0.096,0.074,0.072,0.286,0.233,0.166
			c0.108-0.086,0.129-0.127,0.065-0.216c-0.521-0.74-0.949-1.197-1.525-1.838C42.381,65.962,43.381,66.124,43.999,65.688z
			 M34.052,59.226c-0.226,0-0.409-0.096-0.409-0.213c0-0.116,0.184-0.216,0.409-0.216c0.227,0,0.41,0.099,0.41,0.216
			C34.462,59.13,34.278,59.226,34.052,59.226z"/>
		<path fill="#FFFFFF" d="M34.682,51.241c-0.632-0.031-1.288,0.136-1.853-0.103c-0.786-0.332-1.148-1.157-1.892-1.573
			c-0.484-0.27-0.762-0.518-1.257-0.779c-0.159-0.085-0.449-0.104-0.674-0.464c-0.196-0.31-0.285-0.513-0.492-0.819
			c-0.137-0.207-0.384-0.364-0.61-0.401c-0.413-0.064-0.85-0.167-1.254,0.039c-0.398,0.207-0.569,0.609-0.917,0.904l-0.84,0.141
			c0.767,0.443,1.425,0.79,1.779,1.633c0.227,0.542,0.466,1.009,0.57,1.525c0.036,0.176,0.094,0.38,0.192,0.555
			c0.183,0.328,0.347,0.652,0.633,0.906c0.4,0.359,1.018,0.278,1.084,0.661c0.051,0.298-0.447,0.482-0.751,0.751
			c-0.183,0.164-0.377,0.25-0.594,0.319c0.398,0.12,0.781,0.093,1.152,0.135c0.116,0.014,0.243,0.007,0.357-0.028
			c0.101,0.626,0.518,1.268,1.194,1.402c-0.245-0.656-0.279-1.315,0.087-1.963c-0.493-0.113-0.786-0.02-1.231-0.712
			c1.071,0.428,1.939,0.552,2.972,0.91c0.496,0.172,0.924,0.445,1.372,0.692c0.87,0.482,1.51,1.143,2.308,1.767
			c0.097,0.077,0.072,0.288,0.233,0.165c0.109-0.084,0.13-0.126,0.067-0.215c-0.521-0.739-0.949-1.199-1.526-1.837
			c0.698,0.098,1.697,0.261,2.316-0.178c-0.6-0.457-1.93-0.738-2.632-1.506c-1.694,0.14-4.105-0.65-5.11-1.694
			c-0.14-0.145-0.333-0.391-0.431-0.606c-0.14-0.309-0.197-0.669-0.088-0.991c0.092-0.278,0.477-0.425,0.675-0.408
			c0.098,0.009,0.321,0.146,0.193,0.221c-0.163,0.092-0.399,0.065-0.503,0.221c-0.237,0.354-0.194,0.833,0.133,1.154
			c0.297,0.291,0.605,0.572,0.976,0.805c0.515,0.326,1.023,0.527,1.599,0.712c0.916,0.291,2.639,0.394,3.959,0.235
			c-0.947-0.224-1.935-0.368-2.808-0.829c-0.445-0.237-0.681-0.395-0.946-0.716c0.291,0.365,0.894,0.525,1.333,0.494
			c-0.131-0.152-0.492-0.353-0.631-0.494c0.175,0.226,0.496,0.34,0.837,0.303C34.348,51.498,34.611,51.323,34.682,51.241z
			 M27.158,48.221c-0.227,0-0.41-0.1-0.41-0.217c0-0.117,0.183-0.214,0.41-0.214c0.224,0,0.408,0.096,0.408,0.214
			C27.566,48.121,27.382,48.221,27.158,48.221z"/>
		<path fill="#FFFFFF" d="M48.717,54.559c-0.6-0.458-1.929-0.741-2.632-1.508c-1.694,0.14-4.104-0.652-5.11-1.692
			c-0.14-0.149-0.333-0.391-0.431-0.606c-0.139-0.311-0.197-0.672-0.088-0.995c0.092-0.275,0.477-0.422,0.676-0.405
			c0.099,0.007,0.321,0.144,0.193,0.218c-0.163,0.093-0.399,0.068-0.503,0.223c-0.237,0.351-0.195,0.832,0.133,1.152
			c0.296,0.29,0.605,0.576,0.975,0.805c0.517,0.328,1.024,0.531,1.6,0.714c0.917,0.292,2.638,0.394,3.958,0.235
			c-0.947-0.225-1.932-0.366-2.808-0.829c-0.445-0.237-0.681-0.394-0.946-0.716c0.291,0.366,0.894,0.525,1.333,0.491
			c-0.132-0.148-0.492-0.347-0.63-0.491c0.175,0.223,0.496,0.342,0.836,0.301c0.69-0.079,0.952-0.252,1.022-0.336
			c-0.631-0.03-1.287,0.138-1.853-0.101c-0.785-0.333-1.148-1.158-1.892-1.575c-0.484-0.271-0.762-0.517-1.257-0.778
			c-0.159-0.084-0.45-0.105-0.674-0.463c-0.196-0.314-0.286-0.513-0.492-0.824c-0.136-0.206-0.383-0.362-0.611-0.399
			c-0.412-0.063-0.849-0.166-1.252,0.041c-0.398,0.205-0.57,0.608-0.917,0.903l-0.842,0.14c0.767,0.441,1.425,0.792,1.78,1.635
			c0.226,0.542,0.465,1.007,0.569,1.522c0.036,0.175,0.094,0.382,0.192,0.555c0.183,0.329,0.346,0.655,0.634,0.909
			c0.399,0.358,1.016,0.276,1.082,0.66c0.053,0.298-0.446,0.483-0.751,0.754c-0.183,0.162-0.377,0.247-0.594,0.318
			c0.398,0.116,0.781,0.093,1.152,0.132c0.117,0.016,0.243,0.008,0.357-0.028c0.1,0.628,0.519,1.273,1.194,1.404
			c-0.244-0.656-0.279-1.317,0.086-1.961c-0.493-0.115-0.786-0.021-1.231-0.715c1.071,0.428,1.939,0.551,2.973,0.909
			c0.496,0.171,0.925,0.447,1.372,0.695c0.87,0.478,1.51,1.139,2.308,1.766c0.098,0.075,0.073,0.286,0.233,0.165
			c0.109-0.083,0.129-0.127,0.066-0.213c-0.522-0.741-0.95-1.198-1.526-1.839C47.098,54.832,48.098,54.994,48.717,54.559z
			 M38.77,48.098c-0.227,0-0.41-0.096-0.41-0.215c0-0.116,0.183-0.213,0.41-0.213c0.225,0,0.409,0.097,0.409,0.213
			C39.179,48.001,38.995,48.098,38.77,48.098z"/>
		<path fill="#FFFFFF" d="M33.214,20.108l0.034,0.252c0.024,0.002,0.054,0.002,0.076,0.004c0.176,0.012,0.388,0.03,0.613,0.051
			c0.958,0.088,2.278,0.24,3.331,0.371c0.324,0.041,0.641,0.087,0.95,0.137c0.654,0.105,1.243,0.225,1.721,0.349
			c0.109,0.028,0.228,0.056,0.323,0.084c0.174,0.052,0.357,0.105,0.533,0.154c0.009,0.002,0.017,0.005,0.025,0.007
			c0.277,0.077,0.532,0.145,0.713,0.192l0.293-0.71l0.002-0.005c-0.024-0.005-0.06-0.012-0.086-0.017
			c-0.171-0.034-0.388-0.077-0.633-0.126c-0.279-0.055-0.585-0.116-0.917-0.183c-0.337-0.068-0.687-0.138-1.031-0.208
			c-0.729-0.148-1.423-0.291-1.848-0.386c-0.211-0.047-0.467-0.096-0.738-0.145c-0.396-0.072-0.831-0.143-1.275-0.209
			c-0.499-0.074-0.989-0.139-1.42-0.187c-0.021-0.002-0.043-0.005-0.064-0.007c-0.263-0.029-0.5-0.051-0.691-0.064l0.017,0.124
			L33.214,20.108z"/>
		<path fill="#FFFFFF" d="M29.062,20.993c-0.012,0-0.029,0-0.04,0c-0.163,0-0.414,0.023-0.706,0.058
			c-1.033,0.123-2.682,0.423-3.655,0.639c-0.61,0.135-1.684,0.394-2.575,0.612c-0.168,0.041-0.33,0.081-0.48,0.118
			c-0.04,0.01-0.077,0.019-0.115,0.028c-0.313,0.077-0.569,0.141-0.725,0.179l-0.135,0.248l-0.244,0.45l-0.279,0.614l-0.459,1.008
			c0.184-0.041,0.417-0.093,0.667-0.149c1.337-0.299,3.443-0.765,4.58-0.992c1.442-0.289,3.584-0.443,5.285-0.484
			c0.266-0.006,0.521-0.01,0.762-0.011c0.037,0,0.079-0.001,0.115-0.001c0.268,0,0.568,0.005,0.88,0.012
			c0.782,0.018,1.674,0.056,2.565,0.104c0.895,0.048,1.783,0.106,2.543,0.165c0.77,0.059,1.946,0.274,3.065,0.506
			c0.655,0.136,1.281,0.275,1.802,0.394c0.267,0.061,0.515,0.119,0.71,0.165l-0.008-0.018l-0.517-1.151l-0.32-0.713l-0.194-0.358
			l-0.073-0.135c-0.175-0.045-0.486-0.126-0.825-0.221c-0.03-0.008-0.06-0.017-0.091-0.025c-0.044-0.012-0.088-0.025-0.133-0.038
			c-0.121-0.035-0.243-0.07-0.361-0.105c-0.67-0.199-1.782-0.411-2.902-0.551c-1.002-0.124-2.248-0.269-3.185-0.357
			c-0.257-0.024-0.492-0.044-0.69-0.059l0.02,0.146l-0.479,0.468l-0.608,0.593l-0.205,0.2L31.83,22.55l-0.764,0.745l-0.661-0.749
			l-0.172-0.195l-0.16-0.181l-0.49-0.556l-0.523-0.593L29.062,20.993z"/>
		<path fill="#FFFFFF" d="M20.639,21.799l0.131,0.25c0.17-0.042,0.401-0.099,0.669-0.165c0.012-0.003,0.024-0.006,0.036-0.009
			c0.952-0.234,2.337-0.571,3.066-0.733c1.038-0.231,2.76-0.542,3.818-0.66c0.268-0.03,0.505-0.051,0.664-0.051
			c0.023,0,0.055-0.001,0.081-0.001l0.024-0.335l0.032-0.436l0.014-0.199c-0.216,0.01-0.466,0.033-0.747,0.069
			c-0.116,0.015-0.23,0.029-0.353,0.046c-0.413,0.059-0.855,0.13-1.296,0.202c-0.024,0.004-0.047,0.007-0.071,0.011
			c-0.707,0.116-1.431,0.234-2.01,0.291c-0.477,0.048-1.17,0.181-1.87,0.334c-0.092,0.02-0.183,0.041-0.276,0.062
			c-0.022,0.005-0.043,0.01-0.065,0.015c-0.245,0.055-0.481,0.11-0.71,0.165c-0.286,0.069-0.557,0.135-0.788,0.192
			c-0.32,0.08-0.555,0.141-0.686,0.176l0.133,0.307L20.639,21.799z"/>
		<path fill="#FFFFFF" d="M42.282,22.529l0.637,1.175l0.118,0.218l0.133,0.246l0.075-0.225l0.041-0.123l0.146-0.436l0.114-0.342
			c-0.082,0.005-0.187,0.007-0.253-0.009c-0.01-0.003-0.018-0.017-0.028-0.021c-0.105-0.047-0.2-0.183-0.223-0.265
			c-0.001-0.003,0-0.007-0.001-0.01c-0.025-0.102-0.014-0.208-0.027-0.286c0-0.001,0-0.002,0-0.002
			c-0.019-0.099,0.114-0.32,0.182-0.409c0.066-0.089,0.252-0.168,0.385-0.147c0.096,0.015,0.214,0.109,0.29,0.178l0.01-0.029
			l0.33-0.986l3.367-10.07c0.012-0.054,0.043-0.289-0.032-0.441c-0.082-0.164-0.347-0.266-0.545-0.266
			c-0.238,0-0.322,0.034-0.434,0.175c-0.162,0.202-0.196,0.265-0.283,0.523c-0.088,0.263-0.132,0.441-0.133,0.446l-0.08,0.326
			l-0.307-0.137c-0.148-0.066-0.423-0.164-0.539-0.164c-0.289,0-0.489,0.054-0.668,0.181c-0.125,0.088-0.344,0.402-0.392,0.654
			c-0.056,0.299-0.043,0.552,0.037,0.731c0.129,0.288,0.242,0.421,0.446,0.523c0.092,0.046,0.254,0.072,0.445,0.072
			c0.086,0,0.147-0.005,0.152-0.006l0.473-0.044l-1.95,4.49l-0.282,0.649l-0.509,1.172l-0.775,1.784l-0.134,0.308l-0.02,0.045
			l-0.022,0.05l0.009,0.017L42.282,22.529z"/>
		<path fill="#FFFFFF" d="M30.311,21.591l0.501,0.568l0.083,0.095l0.067,0.076l0.135,0.153l0.16-0.157l0.078-0.076l0.103-0.101
			l0.62-0.606l0.652-0.637l0.038-0.037l-0.042-0.311l-0.029-0.213l-0.035-0.261l-0.036-0.267l-0.033-0.242l-0.017-0.124
			l-0.038-0.281L32.511,19.1l-0.029-0.213l-0.103-0.77l-0.224-1.667l-0.174-1.293l-0.52-3.872l0.321-0.001
			c0.004,0,0.447-0.001,0.702-0.043c0.261-0.043,0.395-0.121,0.514-0.3c0.16-0.238,0.233-0.472,0.233-0.738
			c0-0.249-0.063-0.47-0.176-0.623c-0.104-0.136-0.282-0.238-0.403-0.267c-0.006-0.002-0.032-0.008-0.105-0.008
			c-0.19,0-0.433,0.041-0.439,0.041L31.78,9.4l0.003-0.334c0,0,0.007-0.668,0.013-0.891V8.173c-0.058-0.262-0.119-0.37-0.161-0.419
			c-0.084-0.097-0.166-0.154-0.278-0.233c-0.127-0.09-0.275-0.115-0.516-0.115c-0.103,0-0.413,0-0.538,0.116
			c-0.149,0.142-0.243,0.253-0.28,0.329c-0.055,0.115-0.112,0.246-0.112,0.345c0.001,0.149,0.047,0.87,0.047,0.871l0.024,0.371
			l-0.364-0.079c-0.121-0.026-0.355-0.068-0.469-0.068c-0.182,0-0.314,0.026-0.417,0.081c-0.07,0.038-0.196,0.152-0.339,0.36
			c-0.058,0.085-0.163,0.355-0.163,0.58c0,0.241,0.084,0.488,0.141,0.595c0.081,0.153,0.16,0.239,0.28,0.306
			c0.168,0.097,0.329,0.156,0.442,0.165c0.2,0.017,0.379-0.013,0.507-0.032l0.088-0.013c0.121-0.016,0.252-0.062,0.253-0.063
			l0.404-0.142l-0.305,4.187l-0.049,0.669l-0.155,2.133l-0.056,0.77L29.764,19.1l-0.005,0.068l-0.02,0.281l-0.009,0.122
			l-0.005,0.073l-0.032,0.439l-0.004,0.048l-0.021,0.287l-0.004,0.056l-0.011,0.156l-0.014,0.198l0.131,0.149L30.311,21.591z
			 M31.137,21.359c-0.003,0-0.006,0.002-0.01,0.002c-0.025,0-0.046-0.012-0.07-0.014c-0.25-0.026-0.46-0.174-0.566-0.39
			c-0.001-0.002-0.002-0.003-0.003-0.004c-0.009-0.018-0.018-0.036-0.025-0.055c-0.03-0.079-0.051-0.163-0.051-0.253
			c0-0.008,0.005-0.015,0.005-0.024c0-0.006,0.003-0.011,0.003-0.017c0.004-0.075,0.018-0.147,0.043-0.213
			c0.048-0.126,0.134-0.227,0.239-0.308c0.12-0.091,0.262-0.155,0.424-0.155c0.161,0,0.302,0.063,0.421,0.152
			c0.001,0.001,0.003,0.002,0.004,0.003c0.087,0.066,0.159,0.145,0.209,0.243c0.005,0.009,0.013,0.016,0.018,0.026
			c0.029,0.065,0.04,0.137,0.049,0.211c0.003,0.028,0.016,0.052,0.016,0.081c0,0.01-0.005,0.019-0.006,0.029
			c-0.004,0.084-0.018,0.166-0.049,0.24C31.684,21.172,31.432,21.355,31.137,21.359z"/>
		<path fill="#FFFFFF" d="M22.174,13.7c0.02,0.053,0.038,0.107,0.057,0.16c0.005,0.015,0.011,0.03,0.016,0.044
			c0.016,0.044,0.033,0.089,0.047,0.133c0.073,0.219,0.122,0.657,0.151,0.99c0.008,0.098,0.014,0.181,0.019,0.252
			c0.001,0.011,0.002,0.028,0.003,0.038c0.017,0.004,0.053,0.007,0.076,0.011c0.055,0.009,0.12,0.016,0.206,0.02
			c0.275,0.013,0.686-0.002,1.155-0.096c0.392-0.078,0.699-0.16,0.941-0.234c0.168-0.052,0.299-0.098,0.404-0.14
			c0.01-0.004,0.016-0.007,0.026-0.011c0.05-0.02,0.105-0.042,0.141-0.058c-0.003-0.009-0.008-0.023-0.012-0.032
			c-0.008-0.022-0.019-0.05-0.028-0.074c-0.022-0.059-0.043-0.117-0.068-0.184c-0.002-0.006-0.004-0.012-0.007-0.019
			c-0.096-0.262-0.198-0.558-0.225-0.7c-0.014-0.071-0.023-0.155-0.033-0.234c-0.005-0.037-0.011-0.071-0.015-0.109
			c-0.003-0.027-0.008-0.05-0.011-0.078c-0.03-0.25-0.06-0.507-0.126-0.665c-0.117-0.285-0.32-0.657-0.481-0.818
			c-0.17-0.172-0.402-0.406-0.617-0.513c-0.243-0.122-0.611-0.343-0.611-0.343l-0.058-0.051c-0.07-0.089-0.182-0.182-0.225-0.187
			c-0.035,0.012-0.133,0.146-0.182,0.26L22.68,11.12c-0.003,0.003-0.264,0.3-0.456,0.615c-0.009,0.014-0.016,0.038-0.024,0.054
			c-0.082,0.152-0.158,0.371-0.215,0.646c-0.038,0.186-0.037,0.436,0.002,0.668C22.017,13.277,22.093,13.482,22.174,13.7z
			 M23.221,11.519c0.015,0.006,0.38,0.152,0.664,0.432c0.321,0.319,0.415,0.574,0.514,0.845c0.06,0.166,0.237,0.659,0.301,1.111
			c0.002,0.015,0.005,0.044,0.007,0.064c0.019,0.164,0.045,0.461,0.056,0.592c0.003,0.036,0.006,0.071,0.006,0.071l-0.279,0.023
			c0,0-0.003-0.034-0.006-0.071c-0.006-0.068-0.015-0.173-0.026-0.293c-0.006-0.062-0.011-0.122-0.017-0.178
			c-0.007-0.068-0.014-0.13-0.019-0.168c-0.061-0.424-0.23-0.897-0.286-1.052c-0.092-0.253-0.172-0.469-0.448-0.744
			c-0.141-0.138-0.301-0.235-0.418-0.297c-0.085-0.045-0.15-0.073-0.152-0.074c-0.072-0.028-0.107-0.11-0.078-0.182
			C23.067,11.525,23.147,11.489,23.221,11.519z"/>
		<path fill="#FFFFFF" d="M36.652,14.776c-0.004,0.01-0.009,0.023-0.012,0.033c0.029,0.013,0.075,0.031,0.113,0.047
			c0.01,0.004,0.019,0.008,0.03,0.012c0.064,0.026,0.143,0.054,0.233,0.085c0.263,0.091,0.626,0.196,1.139,0.299
			c0.425,0.085,0.797,0.105,1.07,0.098c0.086-0.002,0.161-0.006,0.223-0.013c0.052-0.006,0.109-0.012,0.141-0.02
			c0.001-0.017,0.004-0.045,0.005-0.064c0.005-0.067,0.01-0.138,0.017-0.225c0.029-0.334,0.078-0.773,0.154-0.993
			c0.02-0.061,0.044-0.124,0.066-0.186c0.01-0.028,0.02-0.056,0.03-0.084c0.008-0.021,0.014-0.041,0.022-0.062
			c0.081-0.219,0.157-0.425,0.186-0.601c0.04-0.235,0.041-0.485,0.003-0.667c-0.066-0.312-0.148-0.555-0.237-0.699
			c-0.007-0.011-0.014-0.02-0.021-0.031c-0.192-0.305-0.434-0.583-0.437-0.585l-0.035-0.055c-0.052-0.119-0.148-0.249-0.194-0.263
			c-0.032,0.006-0.143,0.098-0.212,0.188l-0.059,0.052c0,0-0.369,0.221-0.613,0.343c-0.22,0.111-0.467,0.362-0.614,0.511
			c-0.16,0.159-0.364,0.532-0.484,0.819c-0.066,0.157-0.096,0.412-0.126,0.659c-0.008,0.068-0.019,0.128-0.027,0.194
			c-0.004,0.028-0.008,0.056-0.012,0.083c-0.007,0.049-0.012,0.105-0.021,0.15c-0.028,0.142-0.13,0.437-0.225,0.699
			c-0.003,0.008-0.006,0.017-0.009,0.025c-0.03,0.081-0.056,0.152-0.082,0.219C36.66,14.754,36.655,14.766,36.652,14.776z
			 M37.357,13.906c0.063-0.437,0.229-0.906,0.299-1.106c0.102-0.276,0.195-0.531,0.516-0.849c0.283-0.279,0.648-0.426,0.664-0.432
			c0.075-0.026,0.154,0.008,0.182,0.079c0.029,0.072-0.007,0.154-0.078,0.182c-0.002,0.001-0.11,0.048-0.245,0.128
			c-0.103,0.061-0.22,0.14-0.324,0.243c-0.039,0.039-0.067,0.075-0.099,0.112c-0.192,0.222-0.27,0.414-0.349,0.628
			c-0.033,0.093-0.086,0.245-0.139,0.42c-0.059,0.195-0.117,0.42-0.148,0.636c-0.006,0.04-0.013,0.103-0.02,0.174
			c-0.001,0.01-0.002,0.019-0.003,0.029c-0.003,0.03-0.006,0.061-0.009,0.092c-0.001,0.009-0.002,0.018-0.003,0.027
			c-0.012,0.133-0.023,0.252-0.029,0.323c-0.003,0.032-0.005,0.065-0.005,0.065l-0.279-0.023c0,0,0.003-0.034,0.005-0.065
			c0.009-0.114,0.031-0.37,0.051-0.548C37.348,13.98,37.353,13.932,37.357,13.906z"/>
		<path fill="#FFFFFF" d="M19.128,24.469l0.11-0.203l0.05-0.092l0.596-1.099l0.338-0.622l0.049-0.091l-0.031-0.071l-0.107-0.246
			l-0.61-1.405l-0.314-0.724l-0.394-0.907l-0.619-1.424l-1.617-3.725l0.475,0.046c0.006,0.001,0.068,0.006,0.155,0.006
			c0.189,0,0.35-0.026,0.441-0.072c0.209-0.104,0.381-0.345,0.459-0.537c0.05-0.127,0.096-0.303,0.049-0.627
			c-0.039-0.261-0.195-0.531-0.333-0.682c-0.161-0.179-0.427-0.271-0.724-0.243c-0.141,0.013-0.431,0.11-0.58,0.169l-0.3,0.117
			l-0.076-0.313c-0.001-0.006-0.044-0.182-0.132-0.444c-0.085-0.256-0.119-0.319-0.282-0.521c-0.113-0.142-0.198-0.176-0.434-0.176
			c-0.198,0-0.463,0.102-0.545,0.266c-0.078,0.156-0.04,0.404-0.026,0.463l3.368,10.068l0.325,0.972l0.025,0.076
			c0.076-0.069,0.197-0.169,0.296-0.185c0.134-0.021,0.32,0.058,0.387,0.145c0.017,0.023,0.041,0.067,0.063,0.103
			c0.012,0.019,0.022,0.034,0.033,0.054c0.014,0.025,0.021,0.041,0.033,0.067c0.002,0.004,0.001,0.006,0.003,0.01
			c0.029,0.066,0.057,0.133,0.05,0.176c-0.014,0.081,0,0.193-0.029,0.298c-0.027,0.09-0.135,0.257-0.253,0.286
			c-0.034,0.009-0.08,0.011-0.127,0.012c-0.047,0.001-0.092-0.001-0.134-0.003l0.057,0.171l0.234,0.699l0.008,0.024L19.128,24.469z"
			/>
	</g>
</g>
</svg>
